<svg viewBox="0 0 64 64"
     xmlns="http://www.w3.org/2000/svg">
  <path fill="#fff" d="
    M58.25 28.51H13.78L27.39 12.16
    A3.75 3.75 0 1 0 21.61 7.36L2.86 29.86
    A4.46 4.46 0 0 0 2.53 30.42
    c0 0.19 0 0.3 -0.26 0.49
    A3.75 3.75 0 0 0 2 32.26
    a3.75 3.75 0 0 0 0.26 1.35
    c0 0.19 0 0.3 0.26 0.49
    A4.46 4.46 0 0 0 2.89 34.66L21.61 57.16
    a3.75 3.75 0 0 0 2.89 1.35
    3.75 3.75 0 0 0 2.4 -0.86
    3.75 3.75 0 0 0 0.49 -5.29L13.78 36
    h44.48a3.75 3.75 0 0 0 0 -7.5z" stroke-width="2"/>
</svg>