<svg xmlns="http://www.w3.org/2000/svg" xmlns:xlink="http://www.w3.org/1999/xlink" xml:space="preserve" width="64" height="64"><defs><path id="a" fill="#fff" stroke-width=".8" d="M-23.3-21.8h1.5v4.1h-1.5z" class="st0"/><path id="e" fill="#fff" stroke-width=".8" d="M16.4 9.2 2.7 25.7l3.5 3.5 16.5-13.7Zm-10.2 20 16.5-13.7" class="st0"/><path id="b" fill="#fff" stroke-width=".8" d="M2.7 25.7 16.4 9.2l6.3 6.3L6.2 29.2Z" class="st0"/><path id="c" fill="#fff" stroke-width=".8" d="m17 7.5 7.4 7.4c1.8 0 3.7-.7 5.1-2L19 2.4a7.4 7.4 0 0 0-2 5.1Z" class="st0"/><path id="d" fill="#fff" stroke-width=".8" d="M29.7 2.2a7.4 7.4 0 0 0-9-1.1l10.1 10.2a7.4 7.4 0 0 0-1-9.1Z" class="st0"/><path id="f" fill="#fff" stroke-width=".8" d="M20.6 1c1.2-.6 2.5-1 3.9-1 2 0 3.8.8 5.2 2.2a7.4 7.4 0 0 1 1.1 9z" class="st0"/></defs><use xlink:href="#a" stroke-width=".8" class="st0" transform="matrix(-.8 -.8 .8 -.8 .3 13.2)"/><use xlink:href="#b" stroke-width=".8" class="st0" transform="matrix(1.2 0 0 1.2 .3 13.2)"/><use xlink:href="#c" stroke-width=".8" class="st0" transform="matrix(1.2 0 0 1.2 .3 13.2)"/><use xlink:href="#d" stroke-width=".8" class="st0" transform="matrix(1.2 0 0 1.2 .3 13.2)"/><use xlink:href="#a" stroke-width=".8" class="st0" transform="rotate(-135 15.3 1.4) scale(1.2)"/><use xlink:href="#e" stroke-width=".8" class="st0" transform="matrix(1.2 0 0 1.2 25.1 13.2)"/><use xlink:href="#c" stroke-width=".8" class="st0" transform="matrix(1.2 0 0 1.2 25.1 13.2)"/><use xlink:href="#f" stroke-width=".8" class="st0" transform="matrix(1.2 0 0 1.2 25.1 13.2)"/></svg>