<svg xmlns="http://www.w3.org/2000/svg" width="64" height="64"><path fill="#fff" d="M48.36 30.47 35.37 17.48a2.62 2.62 0 0 0-3.7 3.71l11.12 11.14-11.13 11.13a2.62 2.62 0 0 0 3.71 3.7l13-12.98a2.62 2.62 0 0 0 0-3.7zm-15.62-.79-10.3-10.86a2.56 2.56 0 0 0-3.76 0 2.9 2.9 0 0 0 0 3.95l8.44 8.9-8.44 8.88a2.9 2.9 0 0 0 0 3.96 2.56 2.56 0 0 0 3.75 0l10.31-10.87a2.9 2.9 0 0 0 0-3.96z"/><path fill="#fff" d="M3.02 57.03a1.46 1.46 0 0 1-1.38-1.92l3.34-9.97C1.72 41.23 0 36.71 0 32.02 0 18.53 14.35 7.56 32 7.56s32 10.97 32 24.46-14.35 24.46-32 24.46a39.03 39.03 0 0 1-19.3-4.94l-8.93 5.29c-.23.13-.5.2-.75.2zm9.68-8.65c.26 0 .53.07.76.22 5.2 3.2 11.79 4.96 18.54 4.96 16.04 0 29.08-9.66 29.08-21.54 0-11.88-13.04-21.54-29.08-21.54S2.92 20.14 2.92 32.02c0 4.22 1.66 8.3 4.8 11.83.34.4.46.94.29 1.44l-2.36 7.03 6.3-3.73c.23-.14.5-.21.75-.21z"/></svg>